<?xml version="1.0" encoding="UTF-8"?><svg id="Capa_1" xmlns="http://www.w3.org/2000/svg" xmlns:xlink="http://www.w3.org/1999/xlink" viewBox="0 0 500 104.95"><defs><style>.cls-1{fill:url(#Degradado_sin_nombre_59-5);}.cls-2{fill:url(#Degradado_sin_nombre_59-6);}.cls-3{fill:url(#Degradado_sin_nombre_59-4);}.cls-4{fill:url(#Degradado_sin_nombre_59);}.cls-5{fill:url(#Degradado_sin_nombre_59-2);}.cls-6{fill:url(#Degradado_sin_nombre_59-3);}</style><linearGradient id="Degradado_sin_nombre_59" x1="423.64" y1="422.31" x2="20.46" y2="19.13" gradientUnits="userSpaceOnUse"><stop offset="0" stop-color="#6968eb"/><stop offset=".16" stop-color="#6876e1"/><stop offset=".47" stop-color="#689cca"/><stop offset=".89" stop-color="#67d9a4"/><stop offset="1" stop-color="#67eb99"/></linearGradient><linearGradient id="Degradado_sin_nombre_59-2" x1="360.73" y1="299.56" x2="54.98" y2="-6.2" xlink:href="#Degradado_sin_nombre_59"/><linearGradient id="Degradado_sin_nombre_59-3" x1="415.64" y1="261.06" x2="69.73" y2="-84.86" xlink:href="#Degradado_sin_nombre_59"/><linearGradient id="Degradado_sin_nombre_59-4" x1="436.11" y1="176.19" x2="115.65" y2="-144.28" xlink:href="#Degradado_sin_nombre_59"/><linearGradient id="Degradado_sin_nombre_59-5" x1="486.52" y1="150.36" x2=".9" y2="-335.27" xlink:href="#Degradado_sin_nombre_59"/><linearGradient id="Degradado_sin_nombre_59-6" x1="484.33" y1="87.74" x2="143.55" y2="-253.04" xlink:href="#Degradado_sin_nombre_59"/></defs><polygon class="cls-4" points="106.13 0 76.42 0 36.33 39.85 43.16 0 17.59 0 0 103.47 25.42 103.47 33.21 58.02 60.9 103.47 89.72 103.47 56.32 48.93 106.13 0"/><path class="cls-5" d="M153.86,38.51c-5.27-3.1-11.46-4.66-18.55-4.66s-13.72,1.53-19.88,4.58c-6.16,3.06-11.26,7.24-15.3,12.56-4.04,5.32-6.55,11.43-7.54,18.33-.79,6.8.15,12.88,2.81,18.25,2.66,5.37,6.63,9.61,11.9,12.71,5.27,3.1,11.4,4.66,18.4,4.66s13.99-1.53,20.1-4.58c6.11-3.05,11.18-7.24,15.22-12.56,4.04-5.32,6.5-11.43,7.39-18.33.89-6.8,0-12.88-2.66-18.25-2.66-5.37-6.63-9.61-11.9-12.71ZM145.95,69.32c-.49,3.15-1.65,6.04-3.47,8.65-1.83,2.61-4.04,4.68-6.65,6.21-2.61,1.53-5.45,2.24-8.5,2.14-2.96,0-5.39-.79-7.32-2.36-1.92-1.58-3.33-3.65-4.21-6.21-.89-2.56-1.09-5.32-.59-8.28.49-3.15,1.63-6.04,3.4-8.65,1.77-2.61,3.99-4.7,6.65-6.28,2.66-1.57,5.47-2.31,8.43-2.22,2.96.1,5.42.96,7.39,2.59,1.97,1.63,3.37,3.7,4.21,6.21.84,2.51,1.06,5.25.67,8.2Z"/><path class="cls-6" d="M276.59,37.32c-2.61-2.31-6.58-3.47-11.9-3.47-4.73,0-9.02,1.06-12.86,3.18-3.84,2.12-7.19,4.95-10.05,8.5-.49-2.36-1.43-4.43-2.81-6.21-1.38-1.77-3.23-3.13-5.54-4.06-2.32-.94-5.2-1.4-8.65-1.4-2.96,0-5.67.47-8.13,1.4-2.46.94-4.68,2.19-6.65,3.77-1.97,1.58-3.7,3.5-5.17,5.76l1.48-9.31h-21.28l-11.68,67.99h21.28l7.24-41.98c.39-2.46,1.16-4.56,2.29-6.28,1.13-1.72,2.54-3.08,4.21-4.07,1.67-.98,3.55-1.48,5.62-1.48s3.4.62,4.29,1.85c.89,1.23,1.43,2.76,1.63,4.58.2,1.82.15,3.77-.15,5.84l-7.39,41.54h22.02l7.1-41.54c.39-2.56,1.16-4.73,2.29-6.5,1.13-1.77,2.56-3.18,4.29-4.21,1.72-1.04,3.62-1.55,5.69-1.55s3.67.62,4.51,1.85c.84,1.23,1.33,2.79,1.48,4.66.15,1.87.12,3.84-.07,5.91l-7.54,41.39h22.32l7.39-43.75c.59-4.83.52-9.19-.22-13.08-.74-3.89-2.42-7-5.02-9.31Z"/><path class="cls-3" d="M351.58,37.62c-4.68-2.41-10.47-3.62-17.37-3.62-6.31,0-12.07,1.04-17.29,3.1-5.22,2.07-9.73,4.9-13.53,8.5-3.79,3.6-6.73,7.81-8.79,12.64-2.07,4.83-3.1,10.05-3.1,15.67,0,6.41,1.4,11.92,4.21,16.56,2.81,4.63,6.75,8.2,11.82,10.72,5.07,2.51,11.06,3.77,17.96,3.77,8.67,0,16.13-1.72,22.39-5.17,6.26-3.45,11.16-8.42,14.71-14.93l-19.22-4.88c-1.97,2.76-4.34,4.93-7.09,6.5-2.76,1.58-6.01,2.37-9.76,2.37-3.25,0-5.91-.74-7.98-2.22s-3.52-3.6-4.36-6.36c-.56-1.84-.79-3.87-.76-6.06h50.8c.49-1.38.89-3,1.18-4.88.3-1.87.44-3.6.44-5.17,0-6.31-1.21-11.7-3.62-16.19-2.42-4.48-5.96-7.93-10.64-10.35ZM315.79,61.79s.01-.05.02-.07c.94-2.71,2.17-5,3.7-6.87,1.53-1.87,3.35-3.33,5.47-4.36,2.12-1.04,4.51-1.55,7.17-1.55s4.66.54,6.28,1.63c1.63,1.09,2.86,2.61,3.7,4.58.78,1.83,1.18,4.06,1.23,6.65h-27.57Z"/><polygon class="cls-1" points="408.24 35.48 412.36 11.82 390.93 11.82 386.89 35.48 375.41 35.48 372.16 53.95 383.73 53.95 375.26 103.47 396.4 103.47 405.02 53.95 416.65 53.95 419.9 35.48 408.24 35.48"/><path class="cls-2" d="M477.98,35.48l-2.1,12.41c-.46-1.07-.95-2.11-1.52-3.1-1.92-3.35-4.49-5.99-7.69-7.91-3.2-1.92-7.07-2.88-11.6-2.88-6.11,0-11.8,1.53-17.07,4.58-5.27,3.06-9.68,7.27-13.23,12.64-3.55,5.37-5.76,11.41-6.65,18.11-.79,6.5-.22,12.44,1.7,17.81,1.92,5.37,4.97,9.66,9.16,12.86,4.19,3.2,9.29,4.8,15.3,4.8,4.53,0,8.74-.91,12.64-2.73,3.89-1.82,7.32-4.36,10.27-7.61.35-.38.66-.79.99-1.19l-1.73,10.2h21.88l11.68-67.99h-22.02ZM472.06,69.32c-.39,2.36-1.18,4.63-2.36,6.8-1.18,2.17-2.64,4.06-4.36,5.69-1.72,1.63-3.62,2.88-5.69,3.77-2.07.89-4.19,1.28-6.36,1.18-2.96,0-5.45-.81-7.46-2.44-2.02-1.63-3.4-3.77-4.14-6.43-.74-2.66-.91-5.47-.52-8.42.49-3.15,1.67-6.08,3.55-8.79,1.87-2.71,4.21-4.85,7.02-6.43,2.81-1.57,5.74-2.31,8.8-2.22,2.07.1,3.87.62,5.39,1.55,1.53.94,2.81,2.22,3.84,3.84,1.03,1.63,1.75,3.45,2.14,5.47.39,2.02.44,4.17.15,6.43Z"/></svg>